<?xml version="1.0" encoding="utf-8"?>
<!-- Generator: Adobe Illustrator 22.1.0, SVG Export Plug-In . SVG Version: 6.00 Build 0)  -->
<svg version="1.1" id="Layer_1" xmlns="http://www.w3.org/2000/svg" xmlns:xlink="http://www.w3.org/1999/xlink" x="0px" y="0px"
	 viewBox="0 0 512 512" style="enable-background:new 0 0 512 512;" xml:space="preserve">
<g>
	<path d="M474.3,132.8c-0.1-0.2-0.2-0.4-0.2-0.6c-0.1-0.4-0.3-0.7-0.5-1.1c-0.1-0.2-0.3-0.4-0.5-0.6c-0.2-0.3-0.4-0.6-0.6-0.8
		c-0.2-0.2-0.5-0.4-0.7-0.5c-0.3-0.2-0.5-0.4-0.8-0.6l-84.6-48.7c-2.2-1.3-4.9-1.3-7,0l-84.6,48.7l0,0c-0.3,0.2-0.5,0.4-0.8,0.6
		c-0.2,0.2-0.5,0.3-0.7,0.5c-0.2,0.3-0.4,0.5-0.6,0.8c-0.1,0.2-0.3,0.4-0.5,0.6c-0.2,0.4-0.3,0.7-0.5,1.1c-0.1,0.2-0.2,0.4-0.2,0.6
		c-0.2,0.6-0.2,1.2-0.2,1.8v92.5l-70.5,40.6v-181c0-0.6-0.1-1.2-0.2-1.8c-0.1-0.2-0.2-0.4-0.2-0.6c-0.1-0.4-0.3-0.7-0.5-1.1
		c-0.1-0.2-0.3-0.4-0.5-0.6c-0.2-0.3-0.4-0.6-0.6-0.8c-0.2-0.2-0.4-0.4-0.7-0.5c-0.2-0.2-0.5-0.4-0.8-0.6l0,0l-84.6-48.7
		c-2.2-1.3-4.9-1.3-7,0L41,80.7l0,0c-0.3,0.2-0.5,0.4-0.8,0.6c-0.2,0.2-0.5,0.3-0.7,0.5c-0.2,0.3-0.4,0.5-0.6,0.8
		c-0.2,0.2-0.4,0.4-0.5,0.6c-0.2,0.3-0.3,0.7-0.4,1.1c-0.1,0.2-0.2,0.4-0.3,0.6c-0.2,0.6-0.2,1.2-0.2,1.8v289.8
		c0,2.5,1.3,4.8,3.5,6.1l169.2,97.4c0.4,0.2,0.8,0.3,1.2,0.5c0.2,0.1,0.4,0.2,0.6,0.2c1.2,0.3,2.4,0.3,3.6,0c0.2,0,0.3-0.1,0.5-0.2
		c0.4-0.1,0.8-0.3,1.2-0.5l169.2-97.4c2.2-1.3,3.5-3.6,3.5-6.1V284l81.1-46.7c2.2-1.3,3.5-3.6,3.5-6.2v-96.5
		C474.5,134,474.5,133.4,474.3,132.8z M129.1,46.2L129.1,46.2l70.5,40.6l-70.5,40.6L58.6,86.8L129.1,46.2z M206.7,98.9v176.9
		l-40.9,23.5l-29.6,17.1V139.5l40.9-23.5L206.7,98.9z M206.7,461.7L51.6,372.5V99l29.6,17l40.9,23.6v189.1c0,0.3,0.1,0.5,0.1,0.8
		c0,0.3,0.1,0.7,0.1,1l0,0c0.1,0.3,0.2,0.5,0.3,0.8c0.1,0.3,0.2,0.6,0.4,0.9l0,0c0.2,0.2,0.3,0.5,0.5,0.7c0.2,0.3,0.4,0.5,0.6,0.7
		l0,0c0.2,0.2,0.5,0.3,0.7,0.5c0.2,0.2,0.5,0.4,0.8,0.6l0,0l0,0l81,45.9L206.7,461.7z M213.7,368.4l-70.4-39.8l73.9-42.5l81.1-46.7
		l70.4,40.5l-51.7,29.5L213.7,368.4z M375.9,372.4l-155.1,89.3v-81.1l114.9-65.6l40.2-23V372.4z M375.9,267.7l-29.6-17l-40.9-23.5
		v-80.3l29.6,17.1l40.9,23.6V267.7z M382.9,175.2l-70.5-40.6L382.9,94l70.5,40.6L382.9,175.2z M389.9,267.7v-80.3l41-23.6l29.6-17.1
		v80.3l0,0L389.9,267.7z"/>
</g>
</svg>
